<?xml version="1.0" standalone="no"?>
<!DOCTYPE svg PUBLIC "-//W3C//DTD SVG 20010904//EN"
 "http://www.w3.org/TR/2001/REC-SVG-20010904/DTD/svg10.dtd">
<svg version="1.0" xmlns="http://www.w3.org/2000/svg"
 width="700.000000pt" height="700.000000pt" viewBox="0 0 700.000000 700.000000"
 preserveAspectRatio="xMidYMid meet">
<metadata>
Created by potrace 1.11, written by Peter Selinger 2001-2013
</metadata>
<g transform="translate(0.000000,700.000000) scale(0.100000,-0.100000)"
fill="#000000" stroke="none">
<path d="M2567 6374 c-31 -17 -47 -50 -47 -95 0 -27 -2 -29 -40 -29 -77 0
-232 -42 -317 -85 -107 -55 -188 -65 -242 -30 -20 13 -47 26 -61 30 -36 8 -85
-26 -111 -77 -12 -23 -32 -50 -45 -60 -12 -10 -26 -27 -29 -37 -4 -13 -26 -26
-63 -37 -60 -19 -110 -63 -187 -163 -27 -35 -59 -62 -96 -81 -105 -54 -145
-125 -136 -238 4 -58 2 -70 -18 -96 -44 -60 -76 -135 -75 -179 1 -23 -1 -69
-5 -102 -6 -52 -3 -66 18 -108 l24 -47 -25 -63 c-47 -117 -34 -253 30 -300 27
-20 30 -20 100 -5 40 9 74 15 76 13 2 -1 -8 -15 -21 -31 -63 -76 -69 -135 -19
-175 24 -19 35 -21 98 -15 39 3 108 17 153 31 87 28 113 24 126 -15 9 -29 54
-60 87 -60 19 0 42 13 73 41 42 39 45 40 67 25 12 -9 40 -16 62 -16 37 0 38
-1 23 -18 -10 -10 -17 -28 -17 -40 0 -32 37 -36 104 -12 31 12 59 20 61 18 1
-1 -1 -13 -6 -25 -6 -16 -17 -23 -36 -23 -31 0 -65 -24 -81 -55 -17 -35 -25
-219 -12 -274 10 -43 9 -53 -4 -73 -22 -31 -20 -83 6 -129 18 -32 20 -43 10
-64 -16 -35 -15 -70 3 -106 11 -20 14 -43 9 -77 -4 -31 -1 -62 10 -92 23 -67
22 -72 -19 -64 -53 10 -101 -3 -140 -38 -44 -38 -49 -92 -11 -127 20 -19 34
-22 87 -21 37 1 81 -4 104 -13 38 -14 40 -18 48 -67 4 -28 12 -60 17 -70 8
-16 -2 -34 -60 -106 -38 -48 -70 -96 -70 -106 0 -19 33 -58 50 -58 13 0 122
55 173 87 35 22 43 23 63 12 13 -7 24 -15 24 -19 0 -20 -67 -95 -129 -144 -80
-64 -83 -67 -71 -85 26 -42 143 36 211 142 l38 58 42 -58 c24 -32 57 -71 75
-88 17 -16 41 -49 52 -72 25 -49 53 -61 87 -39 25 17 29 25 25 61 -1 12 11 1
31 -29 75 -113 174 -185 251 -186 37 0 68 26 68 58 0 8 -71 85 -157 171 -87
86 -166 173 -177 193 -18 36 -18 37 3 64 43 55 19 83 -50 59 -23 -8 -63 -15
-88 -15 -151 0 -279 234 -226 416 31 110 149 195 245 179 57 -10 126 -59 147
-105 23 -49 37 -51 30 -4 -5 31 -4 35 11 29 31 -14 146 -45 164 -45 16 0 18
10 18 70 0 93 -24 248 -60 394 -17 65 -30 121 -30 123 0 3 18 -11 39 -30 22
-20 53 -43 70 -51 96 -50 178 31 151 150 -6 26 -24 92 -40 147 -17 55 -30 103
-30 108 0 4 19 2 41 -6 53 -19 73 -19 114 1 41 19 62 60 72 143 l8 63 50 -41
c111 -92 229 -104 331 -35 37 25 40 26 108 15 210 -34 362 -30 456 10 49 21
140 107 140 133 1 6 7 -3 15 -21 9 -22 23 -35 42 -39 15 -4 39 -17 53 -30 41
-37 96 -56 162 -53 69 3 67 6 104 -104 29 -82 43 -258 44 -529 0 -87 7 -256
16 -375 38 -511 -12 -839 -161 -1063 -115 -173 -287 -271 -555 -316 -91 -15
-120 -16 -217 -6 -61 7 -155 24 -210 38 -135 37 -147 38 -162 20 -36 -43 29
-85 198 -130 189 -51 391 -55 539 -11 30 9 56 14 59 11 3 -3 15 -34 28 -70 12
-36 33 -81 45 -101 13 -21 19 -40 14 -44 -106 -76 -237 -143 -351 -177 -120
-36 -304 -39 -436 -6 -197 49 -439 175 -581 304 l-49 44 50 37 c58 43 97 90
122 150 36 83 35 91 -13 125 l-43 31 -6 -49 c-8 -65 -36 -117 -90 -167 -52
-48 -96 -73 -129 -73 -42 0 -162 -38 -253 -80 -50 -23 -148 -59 -220 -80 -475
-140 -708 -260 -939 -480 -224 -213 -459 -571 -626 -950 -35 -79 -140 -353
-140 -365 0 -3 468 -5 1040 -5 l1039 0 16 30 c16 32 61 60 95 60 11 0 38 -9
60 -20 80 -41 140 -18 140 53 0 23 6 39 16 45 60 34 98 -62 53 -134 l-21 -34
980 0 980 0 6 24 c8 33 52 83 89 103 40 20 105 13 187 -22 98 -41 130 -20 164
109 8 33 21 63 28 67 22 14 62 10 92 -10 28 -18 29 -18 47 0 58 58 133 -38 84
-108 -22 -31 -78 -47 -116 -34 -29 10 -31 9 -45 -24 -8 -19 -28 -50 -45 -70
l-31 -35 175 0 174 0 7 80 c7 76 9 80 32 80 27 0 27 0 24 -92 l-2 -68 371 0
c204 0 371 3 371 8 0 4 -12 81 -26 172 -21 129 -24 170 -16 193 6 16 9 34 6
42 -8 19 -45 26 -81 16 l-30 -9 -7 91 c-18 265 0 461 59 623 20 54 48 128 61
164 17 47 24 86 24 141 0 188 -97 347 -283 464 -19 11 -29 68 -52 295 -20 195
-45 303 -95 407 -45 93 -81 125 -140 127 -47 1 -85 -31 -94 -78 -3 -17 3 -94
14 -171 11 -77 23 -217 27 -311 l6 -171 -29 -6 c-41 -8 -97 -48 -112 -80 l-13
-27 -52 27 c-64 33 -172 38 -223 11 -114 -62 -170 -217 -147 -408 5 -47 9 -86
9 -87 -1 -1 -87 48 -191 109 -356 208 -453 248 -660 274 -66 8 -129 17 -141
20 -24 6 -81 95 -89 139 -6 28 -2 32 45 58 213 119 385 351 450 612 39 155 45
476 14 802 l-6 63 57 -30 c31 -17 70 -30 86 -30 41 0 93 24 113 51 20 29 20
34 2 52 -13 12 -22 12 -70 0 -64 -16 -114 -7 -159 30 -28 22 -29 24 -48 226
-19 202 -19 203 1 219 15 13 22 39 31 109 11 89 11 96 -16 180 -36 115 -129
297 -225 438 -11 17 -20 46 -20 66 0 20 -8 46 -18 58 -21 26 -269 186 -337
217 -27 13 -57 24 -66 24 -9 0 -24 9 -35 21 -34 38 -112 69 -197 81 -45 6
-136 24 -201 39 -134 32 -243 37 -322 15 -27 -8 -91 -17 -143 -20 l-94 -7 -38
37 c-42 41 -42 54 -1 54 37 0 95 50 121 103 28 58 28 130 0 158 -19 19 -20 23
-5 59 8 21 24 53 35 71 53 86 0 170 -91 146 -18 -5 -42 -28 -70 -70 l-43 -62
-5 56 c-3 35 -12 65 -23 77 -17 18 -17 24 -3 78 38 150 33 216 -22 276 -75 83
-170 102 -309 62 -17 -5 -24 1 -38 30 -9 19 -22 40 -29 45 -23 19 -70 22 -99
5z m404 -1136 c39 -22 50 -38 27 -38 -30 0 -220 -102 -294 -157 -170 -127
-375 -365 -440 -511 l-23 -52 -33 13 c-37 16 -37 13 -9 122 46 185 62 214 191
348 133 140 295 246 430 281 77 20 106 19 151 -6z m-421 -2448 c0 -5 -4 -10
-10 -10 -5 0 -10 5 -10 10 0 6 5 10 10 10 6 0 10 -4 10 -10z m3544 -233 c20
-40 47 -121 61 -181 28 -117 78 -416 71 -423 -2 -2 -19 2 -37 10 -19 8 -58 20
-87 26 -41 10 -52 17 -48 30 3 9 10 61 17 116 12 107 7 222 -16 376 -17 113
-18 119 -5 119 5 0 25 -33 44 -73z m1 -632 c142 -36 306 -143 377 -244 21 -30
37 -56 35 -57 -1 -2 -29 10 -62 27 -115 56 -309 79 -390 45 -57 -24 -89 -59
-121 -129 -21 -47 -28 -78 -28 -129 -1 -76 -12 -76 -44 0 -44 103 -37 193 21
259 58 66 146 88 242 62 36 -10 41 -9 58 12 19 23 19 24 -7 45 -51 44 -187 51
-258 13 -18 -10 -24 -8 -39 12 -24 31 -24 34 9 57 61 43 115 50 207 27z m-315
-90 c51 -27 51 -84 0 -110 -17 -9 -56 -15 -93 -15 -51 0 -66 -4 -71 -16 -11
-27 13 -43 75 -50 60 -7 82 -24 30 -24 -33 0 -54 -21 -49 -47 3 -14 13 -18 41
-17 27 1 37 -3 37 -14 0 -66 64 -159 130 -188 22 -10 42 -25 45 -35 3 -9 14
-24 25 -34 20 -18 20 -19 -19 -41 -21 -13 -46 -39 -55 -58 -36 -77 -8 -166 48
-152 31 8 46 39 46 95 0 30 15 95 25 109 1 1 16 -5 34 -14 51 -25 133 -15 171
21 17 16 30 39 30 52 0 13 1 23 3 23 1 0 20 -7 42 -15 55 -19 79 -18 106 4 22
18 23 21 7 37 -11 11 -39 18 -90 22 -84 6 -102 20 -55 42 20 10 32 23 32 35 0
18 -6 20 -54 19 -72 -2 -87 -18 -73 -77 7 -24 14 -51 17 -59 9 -24 -23 -48
-62 -48 -99 0 -154 103 -119 223 40 139 121 170 326 126 236 -50 214 -42 227
-80 21 -61 15 -166 -13 -244 -116 -312 -127 -375 -122 -682 l3 -213 -45 -7
c-80 -12 -322 -9 -386 6 l-61 13 0 52 c-1 140 -108 381 -230 516 -58 65 -131
258 -169 448 -24 123 -17 272 16 331 29 52 64 80 111 90 38 8 97 -2 139 -24z
m-2715 -439 c17 -12 19 -24 17 -77 -2 -35 -8 -71 -14 -82 -14 -28 -75 -50
-116 -42 l-34 6 6 -43 c18 -129 18 -145 2 -176 -24 -47 -62 -62 -156 -62 -75
0 -81 -2 -89 -23 -5 -13 -5 -43 0 -70 10 -55 4 -77 -21 -77 -40 0 -87 101 -74
157 21 89 58 113 174 113 92 0 93 2 65 94 -19 63 -19 90 2 133 19 42 70 67
114 58 27 -6 29 -5 29 25 0 20 9 40 25 55 28 29 43 31 70 11z m1515 -376 l40
-20 20 20 c42 42 100 11 100 -53 0 -34 -44 -83 -84 -93 -17 -4 -50 2 -91 17
-77 27 -80 26 -115 -64 -51 -130 -120 -163 -242 -117 -77 29 -121 27 -151 -9
-13 -16 -27 -47 -30 -69 -4 -22 -14 -45 -22 -52 -21 -18 -52 11 -65 62 -25 90
41 186 142 208 49 11 60 10 131 -15 93 -32 102 -28 131 59 21 60 67 123 100
136 37 15 96 11 136 -10z m-2866 -238 c47 -27 66 -75 66 -165 l0 -79 35 6 c19
4 66 21 103 38 114 52 196 39 228 -39 18 -41 13 -68 -27 -171 -16 -40 -29 -74
-29 -76 0 -2 16 -23 35 -46 39 -47 36 -71 -12 -93 -21 -9 -31 -8 -61 8 -76 42
-92 137 -42 243 28 60 38 102 24 102 -4 0 -43 -16 -87 -36 -68 -31 -92 -37
-155 -38 -71 -1 -75 0 -96 27 -19 26 -21 40 -18 129 1 64 -2 106 -9 114 -17
20 -69 17 -124 -7 -43 -19 -49 -20 -63 -5 -14 14 -12 19 25 55 64 60 138 72
207 33z"/>
<path d="M4138 3821 c-122 -28 -189 -84 -253 -216 -46 -94 -62 -193 -46 -283
40 -218 216 -341 470 -330 79 3 105 9 146 30 96 50 154 135 191 277 24 97 16
238 -18 313 -37 79 -107 151 -185 190 -81 40 -186 46 -305 19z m261 -107 c52
-20 133 -109 149 -160 31 -107 22 -216 -27 -321 -52 -108 -110 -138 -260 -131
-157 8 -252 62 -303 173 -32 70 -32 233 0 316 30 76 47 98 63 82 19 -19 35
-16 93 13 110 57 193 65 285 28z"/>
<path d="M4224 3504 c-24 -23 -26 -30 -23 -104 5 -89 23 -120 71 -120 42 0 64
29 72 94 10 73 1 111 -31 136 -34 27 -59 25 -89 -6z"/>
<path d="M2370 3323 c0 -5 21 -21 46 -37 26 -16 80 -62 121 -102 78 -75 114
-92 139 -67 54 54 -52 159 -201 198 -64 16 -105 19 -105 8z"/>
<path d="M4496 2894 c-3 -9 -6 -42 -6 -74 l0 -58 -67 -20 c-139 -42 -160 -46
-253 -46 -52 0 -125 6 -162 13 l-68 13 -6 50 c-4 27 -15 59 -24 71 l-18 22 -6
-40 c-4 -22 -18 -88 -31 -146 -37 -157 -33 -189 26 -189 48 0 59 22 59 115 l0
84 45 -20 c116 -52 300 -63 445 -29 81 20 85 20 98 3 30 -43 43 -53 67 -53 26
0 46 26 37 49 -3 8 -22 42 -44 75 -21 33 -48 91 -59 128 -12 37 -22 68 -24 68
-2 0 -6 -7 -9 -16z"/>
<path d="M5135 10 c-4 -6 14 -10 47 -10 38 0 49 3 38 10 -20 13 -77 13 -85 0z"/>
</g>
</svg>
