<?xml version="1.0" standalone="no"?>
<!DOCTYPE svg PUBLIC "-//W3C//DTD SVG 20010904//EN"
 "http://www.w3.org/TR/2001/REC-SVG-20010904/DTD/svg10.dtd">
<svg version="1.0" xmlns="http://www.w3.org/2000/svg"
 width="920.000000pt" height="920.000000pt" viewBox="0 0 920.000000 920.000000"
 preserveAspectRatio="xMidYMid meet">
<metadata>
Created by potrace 1.11, written by Peter Selinger 2001-2013
</metadata>
<g transform="translate(0.000000,920.000000) scale(0.100000,-0.100000)"
fill="#000000" stroke="none">
<path d="M5446 8890 c-58 -55 -88 -62 -117 -29 -15 18 -20 19 -40 7 -13 -7
-29 -19 -37 -25 -7 -7 -20 -13 -28 -13 -16 0 -75 28 -84 39 -3 4 -24 13 -48
20 -34 9 -51 10 -79 0 -41 -13 -83 -15 -343 -10 -175 3 -190 2 -285 -24 -112
-30 -156 -41 -200 -50 -16 -4 -39 -10 -50 -14 -11 -5 -38 -14 -60 -20 -22 -7
-59 -21 -82 -32 -24 -10 -49 -19 -57 -19 -8 0 -18 -4 -21 -10 -3 -5 -17 -10
-31 -10 -13 0 -24 -4 -24 -10 0 -5 -7 -10 -16 -10 -18 0 -198 -86 -216 -103
-7 -7 -29 -24 -48 -37 -19 -13 -44 -32 -54 -42 -11 -10 -26 -18 -33 -18 -7 0
-13 -4 -13 -10 0 -5 -5 -10 -11 -10 -11 0 -95 -55 -117 -77 -7 -7 -17 -13 -22
-13 -5 0 -15 -6 -22 -13 -7 -7 -29 -24 -48 -37 -19 -13 -37 -27 -40 -30 -3 -3
-25 -21 -50 -40 -25 -19 -59 -49 -77 -66 -17 -18 -48 -44 -68 -60 -41 -31
-285 -273 -329 -325 -15 -19 -47 -54 -70 -79 -41 -45 -106 -133 -106 -144 0
-14 -100 -227 -111 -236 -3 -3 -28 -50 -55 -105 -46 -91 -57 -120 -87 -225 -5
-19 -13 -44 -18 -55 -4 -11 -10 -31 -14 -45 -3 -14 -11 -41 -16 -60 -25 -88
-46 -287 -54 -515 -3 -88 -10 -177 -16 -199 -10 -36 -2 -160 17 -281 2 -16 9
-64 14 -105 17 -125 52 -341 81 -490 27 -144 24 -155 -58 -192 -58 -26 -83
-64 -83 -127 0 -51 25 -118 57 -149 8 -8 17 -27 20 -43 3 -16 9 -29 13 -29 4
0 10 -15 13 -32 9 -55 18 -92 27 -113 5 -11 11 -33 13 -50 3 -16 11 -48 17
-70 6 -22 14 -52 17 -67 3 -16 9 -28 14 -28 5 0 9 -9 9 -20 0 -11 3 -20 8 -20
4 0 18 -17 32 -38 14 -20 34 -46 45 -57 37 -37 142 -95 173 -95 17 0 33 -4 36
-9 3 -4 37 -12 76 -15 39 -4 92 -13 118 -21 26 -7 58 -16 72 -18 21 -4 19 -5
-7 -6 -18 0 -33 -5 -33 -9 0 -5 -11 -15 -25 -22 -13 -7 -22 -16 -20 -20 14
-22 287 -39 311 -19 22 18 17 49 -8 50 -53 2 29 17 100 18 41 1 126 5 190 11
162 13 279 19 265 13 -7 -3 -13 -13 -13 -24 0 -10 -4 -19 -9 -19 -4 0 -8 -24
-8 -52 1 -38 -7 -67 -26 -105 -65 -125 -73 -197 -29 -240 15 -16 38 -48 51
-73 34 -62 111 -150 131 -150 14 0 13 21 -5 63 -15 36 -12 67 8 67 5 0 29 -20
53 -45 29 -31 50 -45 68 -45 14 0 26 -4 26 -10 0 -5 9 -10 20 -10 11 0 20 -4
20 -9 0 -5 14 -14 30 -21 17 -7 30 -16 30 -20 0 -16 110 -42 180 -42 70 0 190
14 196 23 3 5 18 9 35 9 16 0 29 5 29 10 0 6 9 10 19 10 11 0 23 5 26 10 3 6
22 10 41 10 19 0 34 5 34 10 0 6 11 10 24 10 14 0 28 4 31 10 3 5 24 10 46 10
21 0 39 5 39 10 0 6 25 10 55 10 36 0 71 7 97 20 23 11 46 20 51 20 14 0 37
28 37 45 0 14 -6 16 -27 11 -67 -16 -94 -15 -106 5 -10 16 -24 19 -104 19 -51
0 -105 -5 -120 -11 -15 -7 -44 -19 -63 -27 -19 -8 -48 -19 -65 -23 -16 -4 -63
-19 -103 -33 -104 -36 -148 -34 -246 13 -121 57 -175 81 -187 81 -6 0 -19 -10
-30 -22 -15 -18 -20 -20 -28 -9 -6 9 -14 10 -27 3 -20 -10 -114 6 -114 20 0 5
-8 8 -18 8 -10 0 -37 16 -60 36 -37 31 -42 41 -42 78 0 43 35 144 61 174 8 9
25 33 39 52 13 19 27 37 31 40 4 3 21 34 37 68 17 35 52 85 78 110 84 84 204
259 204 299 0 14 30 72 48 91 14 16 16 89 2 94 -14 4 -14 191 0 217 6 12 17
21 25 21 7 0 15 5 17 10 2 6 31 15 65 20 50 8 76 7 130 -7 93 -23 127 -57 137
-136 4 -32 14 -75 23 -94 9 -23 12 -49 8 -70 -5 -27 -2 -38 13 -51 25 -22 42
-55 42 -82 0 -43 79 -181 132 -231 29 -27 60 -52 70 -55 10 -3 18 -9 18 -13 0
-13 43 -28 175 -60 98 -24 157 -31 325 -40 431 -22 484 -26 443 -29 -24 -2
-43 -5 -43 -8 0 -38 140 -49 181 -14 l24 19 -49 1 c-71 0 -47 17 44 30 84 13
253 62 318 93 24 12 60 41 80 65 21 24 55 66 77 92 43 51 64 110 97 265 11 50
23 106 28 125 4 19 13 59 19 88 6 30 14 58 17 64 5 7 42 9 112 5 l105 -6 73
-76 c40 -41 78 -75 83 -75 18 0 32 -40 35 -99 3 -80 24 -111 75 -111 39 0 39
0 51 53 7 28 17 57 22 63 4 7 8 48 7 92 -1 63 2 85 15 97 9 9 16 20 16 24 0
10 107 91 120 91 4 0 10 3 12 8 2 4 20 20 40 35 l37 28 41 -42 c22 -23 40 -46
40 -51 0 -5 9 -18 20 -30 l20 -22 0 27 c0 15 -4 27 -10 27 -5 0 -10 9 -10 20
0 11 -3 20 -8 20 -4 0 -12 10 -17 22 -6 12 -19 26 -30 32 -45 25 -58 61 -36
104 20 39 30 69 35 102 3 19 10 60 16 90 19 93 31 163 36 205 6 56 25 146 34
170 17 40 22 95 30 320 4 140 4 259 -2 305 -6 41 -12 102 -15 135 -2 33 -8 69
-13 80 -5 11 -11 34 -14 50 -16 102 -50 250 -67 293 -5 13 -9 34 -9 47 0 13
-4 27 -10 30 -5 3 -10 19 -10 35 0 16 -4 31 -9 34 -5 3 -11 20 -14 38 -21 124
-65 255 -89 266 -5 2 -8 9 -8 15 0 7 -11 25 -25 41 -14 16 -25 32 -25 36 0 4
-11 20 -25 36 -14 16 -25 35 -25 42 0 6 -4 12 -10 12 -5 0 -10 9 -10 20 0 11
-4 20 -10 20 -5 0 -10 9 -10 20 0 11 -4 20 -10 20 -5 0 -10 9 -10 20 0 11 -3
20 -8 20 -4 0 -15 17 -24 38 -18 38 -49 93 -58 102 -3 3 -21 25 -40 50 -19 25
-57 68 -85 96 -27 28 -89 91 -136 140 -115 120 -287 284 -330 314 -44 32 -164
152 -209 210 -69 90 -117 120 -190 120 -94 0 -171 67 -157 137 8 40 -5 57 -37
49 -23 -6 -26 -3 -26 19 0 18 -5 25 -20 25 -11 0 -20 -4 -20 -10 0 -19 -66
-11 -89 11 -17 16 -31 20 -57 16 -22 -4 -39 -1 -48 9 -8 8 -17 14 -21 14 -3 0
-30 -22 -59 -50z m-2066 -940 c0 -5 -4 -10 -10 -10 -5 0 -10 5 -10 10 0 6 5
10 10 10 6 0 10 -4 10 -10z m3431 -391 c20 -23 34 -58 26 -65 -3 -3 -16 15
-30 40 -27 49 -26 59 4 25z m-1883 -788 c28 -24 28 -31 -2 -31 -26 0 -51 24
-41 40 9 14 16 12 43 -9z m-1054 -80 c8 -12 69 -21 189 -27 53 -3 97 -9 97
-14 0 -19 224 -30 301 -15 23 4 39 3 43 -4 4 -6 29 -11 57 -11 27 0 49 -4 49
-10 0 -22 50 -9 77 20 35 37 74 39 110 5 30 -27 63 -26 98 5 32 28 63 34 90
16 13 -9 31 -16 40 -16 8 0 15 -4 15 -9 0 -15 86 -22 337 -27 157 -3 244 -1
248 6 3 5 22 10 41 10 19 0 34 5 34 10 0 18 71 11 101 -11 l29 -21 29 31 c16
17 34 31 41 31 7 0 9 8 5 20 -3 11 -2 20 4 20 5 0 15 -17 21 -37 9 -31 24 -67
36 -91 4 -7 34 12 34 22 0 6 5 28 11 49 8 32 14 37 39 37 15 0 30 4 32 10 2 5
18 -4 36 -21 26 -24 40 -30 70 -28 38 3 72 -10 106 -42 22 -21 31 -23 94 -19
41 2 46 -2 96 -54 36 -37 58 -71 67 -101 7 -25 17 -45 21 -45 4 0 8 -10 8 -23
0 -13 4 -27 8 -32 14 -16 32 -90 32 -129 0 -21 4 -56 10 -79 5 -23 14 -148 20
-277 9 -223 26 -389 40 -400 3 -3 12 -25 19 -50 7 -25 17 -53 22 -62 5 -10 9
-27 9 -38 0 -10 9 -35 20 -55 11 -20 20 -53 20 -74 0 -23 5 -41 13 -44 29 -10
-9 -21 -65 -19 -39 2 -81 13 -121 32 -103 47 -215 77 -382 105 -49 8 -117 19
-150 25 -190 32 -333 42 -535 36 -197 -6 -329 -17 -435 -35 -27 -5 -95 -16
-150 -25 -55 -9 -109 -19 -120 -22 -18 -5 -18 -4 3 11 12 9 22 27 22 39 0 29
11 32 160 35 63 1 122 7 131 12 10 5 32 9 48 9 17 0 66 17 109 39 l77 39 200
8 c358 15 585 8 601 -17 3 -5 18 -9 33 -9 15 0 31 -4 37 -9 8 -8 78 -16 112
-12 14 1 17 41 2 41 -5 0 -10 6 -10 13 0 7 -36 49 -79 94 -44 44 -87 95 -96
114 -22 42 -114 139 -131 139 -8 0 -14 5 -14 10 0 6 -9 10 -20 10 -11 0 -20 4
-20 9 0 41 -410 17 -550 -33 -25 -9 -56 -16 -69 -16 -24 0 -81 -15 -111 -30
-8 -3 -36 -13 -62 -21 -27 -7 -48 -17 -48 -21 0 -4 -15 -8 -32 -8 -22 0 -45
-10 -68 -30 -19 -16 -39 -30 -43 -30 -12 0 -50 -42 -66 -72 -8 -16 -23 -28
-33 -28 -10 0 -18 -7 -18 -16 0 -14 -33 -70 -50 -84 -10 -8 -50 -81 -50 -90 0
-5 9 -12 20 -15 11 -3 20 -12 20 -18 0 -13 -45 -37 -67 -37 -7 0 -13 -4 -13
-9 0 -5 -12 -12 -27 -16 -26 -7 -26 -8 -8 -15 19 -7 18 -8 -5 -13 -14 -3 -46
-9 -72 -12 -27 -3 -48 -10 -48 -15 0 -19 -86 -32 -175 -27 -67 4 -113 0 -179
-14 -49 -10 -109 -19 -132 -19 -55 0 -141 18 -179 38 -50 26 -203 62 -335 80
-149 20 -571 22 -720 3 -100 -12 -239 -28 -328 -36 l-54 -6 5 53 c16 186 30
299 42 343 8 29 16 120 19 220 7 223 25 339 57 374 10 11 19 27 19 36 0 8 5
15 10 15 6 0 10 16 10 35 0 24 6 37 20 45 11 6 20 16 20 22 0 6 14 24 30 40
17 15 30 33 30 38 0 6 13 10 29 10 21 0 43 13 77 45 26 25 51 45 56 45 5 0 28
9 50 20 23 11 52 20 65 20 13 0 31 4 41 9 27 14 109 31 147 31 18 0 37 5 40
10 3 6 19 10 35 10 16 0 32 5 35 10 3 6 21 10 40 10 19 0 36 4 39 9 7 10 56
20 139 28 31 2 74 13 95 23 28 15 60 19 129 20 50 0 94 -4 97 -9z m-1194 -361
c0 -5 -5 -10 -11 -10 -5 0 -7 5 -4 10 3 6 8 10 11 10 2 0 4 -4 4 -10z m3245
-1150 c212 -14 401 -57 442 -102 19 -21 20 -129 3 -263 -6 -44 -15 -118 -21
-165 -6 -47 -28 -143 -51 -215 -57 -185 -60 -187 -290 -224 -273 -44 -356 -51
-590 -51 -256 0 -490 28 -554 65 -35 20 -44 33 -60 82 -23 72 -23 125 0 183
16 40 17 53 5 115 -13 73 -40 117 -68 113 -25 -4 -28 94 -4 130 11 15 30 49
43 77 35 70 59 95 92 95 15 0 28 5 28 10 0 6 9 10 20 10 11 0 20 5 20 10 0 6
9 10 19 10 22 0 32 20 24 48 -4 17 1 22 29 26 67 10 94 15 173 30 44 9 152 20
240 25 158 9 227 8 500 -9z m-2555 -55 c222 -17 301 -28 361 -50 24 -9 53 -19
64 -22 11 -4 22 -9 25 -13 3 -4 24 -17 48 -29 26 -13 42 -28 41 -39 0 -10 -3
-12 -6 -4 -2 6 -13 12 -24 12 -27 0 -27 -50 1 -57 11 -3 20 -13 20 -23 0 -10
7 -20 15 -24 28 -10 18 -182 -19 -326 -23 -90 -59 -204 -67 -210 -3 -3 -12
-15 -18 -28 -32 -60 -81 -106 -128 -120 -93 -27 -796 -23 -953 5 -43 8 -45 10
-48 45 -2 21 -9 39 -18 42 -23 9 -36 -3 -29 -24 7 -23 -14 -60 -34 -60 -26 0
-99 50 -122 83 -13 17 -26 34 -30 37 -20 14 -79 128 -94 178 -9 31 -21 71 -26
87 -14 41 -23 328 -10 298 13 -30 61 -32 61 -4 0 11 5 23 10 26 6 3 10 17 10
31 0 13 6 24 13 24 10 0 12 -14 7 -57 -8 -65 11 -177 39 -233 143 -289 203
-390 233 -390 18 0 6 37 -51 153 -144 295 -136 271 -139 387 -4 118 17 247 42
266 9 6 44 14 78 18 35 4 104 13 153 20 121 18 369 18 595 1z m3458 -77 c17
-17 15 -28 -4 -28 -22 0 -48 27 -31 33 19 8 22 8 35 -5z m-4448 -38 c0 -5 -7
-10 -16 -10 -8 0 -12 5 -9 10 3 6 10 10 16 10 5 0 9 -4 9 -10z m4598 -15 c1
-1 -11 -17 -28 -35 -17 -18 -36 -42 -41 -52 -10 -18 -11 -18 -39 -1 -17 9 -30
21 -30 25 0 4 -7 8 -15 8 -8 0 -19 9 -24 19 -14 24 2 38 49 43 32 3 121 -2
128 -7z m-2384 -191 c3 -9 5 -46 5 -82 l-1 -67 -13 50 c-7 28 -14 65 -14 83
-1 34 13 43 23 16z m97 -164 c13 0 8 -155 -5 -178 l-13 -24 -14 24 c-24 38
-61 158 -54 177 5 16 11 18 43 10 20 -5 40 -9 43 -9z m-971 -525 c0 -11 -24
-55 -31 -55 -15 0 -17 30 -3 45 15 14 34 20 34 10z m1040 -563 c0 -11 -51 -35
-58 -28 -3 3 1 12 8 21 13 16 50 21 50 7z"/>
<path d="M2867 5609 c-63 -34 -107 -72 -107 -94 0 -10 -10 -15 -27 -15 -40 0
-53 -12 -63 -56 -22 -92 -9 -120 41 -93 15 8 34 7 67 0 69 -17 119 -22 307
-31 94 -4 215 -13 270 -19 55 -5 127 -13 160 -16 89 -9 105 -14 105 -30 0 -11
11 -15 40 -15 22 0 40 -3 40 -8 0 -7 69 -32 90 -32 17 0 11 49 -11 93 -12 23
-25 44 -28 47 -4 3 -22 35 -40 72 -18 37 -42 75 -52 84 -11 9 -19 22 -19 29 0
12 -41 35 -61 35 -6 0 -17 7 -25 15 -9 8 -27 17 -42 21 -15 3 -34 9 -42 13 -8
4 -84 8 -168 10 -84 1 -167 7 -185 12 -18 5 -68 9 -112 8 -69 0 -88 -5 -138
-30z"/>
<path d="M5465 5014 c-11 -3 -58 -12 -105 -20 -147 -27 -189 -45 -259 -115
-96 -96 -121 -141 -96 -169 8 -9 15 -21 15 -26 0 -5 148 -9 363 -9 l363 0 28
28 c15 15 30 27 35 27 4 0 29 20 54 45 41 39 54 46 95 48 26 1 68 -2 95 -6 45
-8 47 -7 47 15 0 31 -51 80 -110 106 -102 46 -165 60 -285 66 -66 4 -142 8
-170 10 -27 3 -59 2 -70 0z m330 -151 c51 -18 65 -32 45 -43 -8 -4 -26 -18
-39 -29 -13 -12 -28 -21 -32 -21 -4 0 -14 -7 -22 -15 -8 -7 -27 -17 -41 -21
-26 -6 -26 -5 -15 20 7 14 16 26 21 26 4 0 8 7 8 15 0 8 9 19 20 25 11 6 20
17 20 25 0 8 -9 15 -20 15 -12 0 -20 7 -20 16 0 12 5 14 18 9 9 -4 35 -14 57
-22z m-560 -10 c4 -16 12 -48 19 -73 8 -25 12 -48 9 -52 -7 -12 -163 -10 -163
2 0 6 -9 10 -20 10 -11 0 -20 4 -20 9 0 16 51 71 65 71 7 0 15 4 17 8 3 8 68
50 80 51 4 1 10 -11 13 -26z m245 14 c0 -21 -12 -28 -27 -16 -19 16 -16 29 7
29 11 0 20 -6 20 -13z"/>
<path d="M5665 4590 c-3 -5 -15 -10 -26 -10 -10 0 -19 -4 -19 -9 0 -9 -95 -23
-145 -21 -110 5 -164 4 -190 -3 l-30 -9 25 -19 c14 -10 32 -19 41 -19 8 0 19
-4 25 -9 5 -5 35 -12 67 -15 31 -3 82 -9 113 -12 32 -3 66 -1 78 4 11 6 42 16
69 23 26 8 47 17 47 21 0 4 9 8 20 8 32 0 25 37 -12 60 -37 22 -54 25 -63 10z"/>
<path d="M3240 4990 c0 -5 24 -10 54 -10 30 0 58 -5 62 -11 5 -8 -15 -9 -72
-5 -60 5 -99 2 -165 -12 -81 -18 -203 -68 -231 -95 -7 -7 -30 -25 -50 -40 -21
-15 -38 -34 -38 -41 0 -7 19 -19 43 -26 107 -33 131 -42 177 -65 27 -14 58
-25 69 -25 11 0 22 -4 25 -8 7 -12 411 -24 529 -16 85 6 97 9 97 25 0 11 -4
19 -10 19 -5 0 -10 7 -10 15 0 47 -143 225 -180 225 -9 0 -21 5 -27 11 -10 10
-39 15 -105 18 -32 1 -40 31 -8 31 11 0 20 5 20 10 0 6 -37 10 -90 10 -53 0
-90 -4 -90 -10z m-140 -214 c0 -36 5 -68 10 -71 15 -10 12 -25 -6 -25 -9 0
-29 14 -44 30 -15 17 -32 30 -37 30 -4 0 -20 11 -35 24 -27 22 -27 24 -10 40
10 9 24 16 30 16 7 0 12 5 12 10 0 6 18 10 40 10 l40 0 0 -64z m298 41 c2 -10
-3 -17 -12 -17 -18 0 -29 16 -21 31 9 14 29 6 33 -14z m82 19 c0 -2 -3 -11 -6
-20 -9 -23 -34 -20 -34 4 0 13 7 20 20 20 11 0 20 -2 20 -4z m-200 -16 c0 -5
-5 -10 -11 -10 -5 0 -7 5 -4 10 3 6 8 10 11 10 2 0 4 -4 4 -10z m364 -73 c7
-7 18 -22 25 -35 11 -21 10 -22 -39 -22 -47 0 -50 1 -36 16 9 8 16 24 16 35 0
22 16 25 34 6z"/>
<path d="M3632 4559 c-18 -10 -46 -19 -62 -19 -16 0 -31 -4 -34 -9 -4 -6 -19
-6 -39 -1 -17 5 -50 7 -72 4 -121 -16 -407 -3 -444 20 -6 4 -22 1 -36 -6 l-25
-14 20 -22 c12 -12 25 -22 30 -22 5 0 20 -11 34 -25 14 -14 29 -25 33 -25 4 0
19 -9 33 -20 14 -11 35 -20 47 -20 12 0 25 -4 28 -10 9 -14 329 -13 374 1 20
6 44 15 53 20 10 5 23 9 29 9 17 0 49 40 55 69 2 14 9 38 13 53 12 37 2 41
-37 17z"/>
<path d="M7286 4823 c-29 -8 -58 -42 -96 -115 -19 -38 -38 -68 -42 -68 -5 0
-8 -11 -8 -25 0 -14 -9 -30 -20 -37 -11 -7 -20 -18 -20 -25 0 -7 -9 -13 -19
-13 -20 0 -31 -18 -31 -51 0 -26 27 -24 41 3 12 23 23 38 52 69 9 10 17 24 17
29 0 6 9 10 19 10 17 0 19 -7 19 -64 0 -35 4 -70 8 -78 5 -7 12 -40 16 -73 20
-166 31 -205 57 -205 12 0 21 15 31 53 7 28 16 59 20 67 41 83 52 140 46 230
-3 47 -8 120 -9 163 -2 43 -8 82 -14 85 -5 4 -15 17 -22 30 -6 12 -15 21 -19
21 -4 -1 -16 -4 -26 -6z"/>
<path d="M7488 4604 c-5 -4 -8 -34 -8 -66 0 -32 -4 -58 -9 -58 -10 0 -19 -70
-27 -207 -3 -59 -2 -93 5 -93 5 0 12 37 14 83 3 45 12 132 21 192 17 109 18
164 4 149z"/>
<path d="M6880 4449 c0 -17 4 -28 10 -24 6 3 10 17 10 31 0 13 -4 24 -10 24
-5 0 -10 -14 -10 -31z"/>
<path d="M7125 4425 c-3 -8 -7 -22 -10 -30 -2 -8 -10 -14 -17 -13 -9 2 -14
-15 -16 -59 -2 -35 -7 -63 -12 -63 -6 0 -10 -9 -10 -20 0 -11 -4 -20 -10 -20
-14 0 -12 -73 3 -94 16 -22 38 -13 57 25 17 35 30 39 45 13 11 -21 26 -34 38
-34 14 0 7 60 -13 95 -16 28 -20 54 -20 125 0 74 -3 90 -15 90 -9 0 -18 -7
-20 -15z"/>
<path d="M6860 4369 c0 -24 4 -38 10 -34 6 3 10 22 10 41 0 19 -4 34 -10 34
-5 0 -10 -18 -10 -41z"/>
<path d="M4552 4333 c-6 -16 -16 -46 -22 -68 -6 -22 -16 -53 -20 -68 -5 -17
-5 -39 1 -53 5 -14 9 -43 9 -66 0 -51 32 -98 66 -98 25 0 25 0 19 73 -3 39 -8
92 -10 117 -3 29 1 55 11 75 10 19 11 31 5 33 -6 2 -11 10 -11 17 0 19 -22 65
-30 65 -4 0 -12 -12 -18 -27z"/>
<path d="M6920 4093 c1 -45 19 -73 49 -73 18 0 20 4 15 28 -12 49 -34 81 -56
82 -5 0 -8 -17 -8 -37z"/>
<path d="M2600 4073 c0 -31 34 -93 50 -93 15 0 12 42 -5 84 -18 43 -45 48 -45
9z"/>
<path d="M6820 4050 c0 -16 -4 -30 -8 -30 -4 0 -14 -28 -21 -62 -7 -35 -21
-90 -31 -123 -11 -33 -26 -96 -35 -140 -18 -90 -37 -159 -65 -225 -10 -25 -24
-72 -31 -105 -7 -33 -16 -64 -21 -69 -4 -6 -8 -20 -8 -33 0 -31 -23 -103 -32
-103 -5 0 -8 -9 -8 -20 0 -11 -4 -20 -10 -20 -5 0 -10 -9 -10 -20 0 -11 -9
-35 -20 -55 -11 -20 -20 -42 -20 -50 0 -8 -4 -15 -10 -15 -5 0 -10 -9 -10 -20
0 -11 -4 -20 -10 -20 -5 0 -10 -8 -10 -18 0 -10 -9 -24 -20 -32 -11 -8 -20
-22 -20 -32 0 -10 -4 -18 -10 -18 -5 0 -10 -6 -10 -12 0 -7 -14 -29 -30 -48
-16 -19 -30 -41 -30 -47 0 -7 -4 -13 -9 -13 -5 0 -14 -13 -21 -30 -7 -16 -16
-30 -21 -30 -5 0 -9 -6 -9 -12 0 -7 -14 -29 -30 -48 -16 -19 -30 -41 -30 -47
0 -7 -4 -13 -10 -13 -5 0 -10 -6 -10 -14 0 -7 -49 -64 -110 -127 -60 -63 -110
-117 -110 -121 0 -4 -51 -59 -114 -122 -63 -63 -127 -132 -143 -153 -35 -47
-181 -193 -193 -193 -5 0 -15 -6 -22 -13 -7 -7 -29 -24 -48 -37 -19 -13 -46
-35 -60 -47 -14 -13 -28 -23 -31 -23 -3 0 -19 -11 -35 -25 -16 -14 -35 -25
-41 -25 -7 0 -13 -4 -13 -9 0 -5 -17 -16 -37 -25 -37 -15 -93 -46 -103 -56 -3
-3 -17 -11 -32 -19 -16 -8 -28 -18 -28 -23 0 -4 -10 -8 -22 -8 -13 0 -34 -9
-48 -20 -14 -11 -35 -20 -47 -20 -13 0 -23 -4 -23 -10 0 -5 -13 -10 -29 -10
-17 0 -33 -4 -36 -10 -3 -5 -17 -10 -31 -10 -13 0 -24 -4 -24 -10 0 -5 -13
-10 -29 -10 -17 0 -33 -4 -36 -10 -3 -5 -15 -10 -25 -10 -28 0 -70 -21 -70
-35 0 -7 -32 -17 -77 -24 -185 -29 -221 -27 -265 14 -15 14 -35 25 -46 25 -10
0 -22 4 -28 9 -13 14 -127 71 -139 71 -17 0 -65 24 -65 33 0 4 -6 7 -12 7 -7
0 -26 11 -42 25 -16 14 -33 25 -37 25 -4 0 -19 11 -33 25 -14 14 -29 25 -34
25 -5 0 -23 14 -40 30 -18 16 -36 30 -41 30 -11 0 -111 100 -211 208 -36 39
-71 72 -77 72 -7 0 -13 5 -13 10 0 6 -6 10 -13 10 -16 0 -107 91 -107 108 0 7
-4 12 -10 12 -5 0 -10 7 -10 15 0 9 -13 24 -30 33 -16 9 -30 20 -30 25 0 4
-13 7 -30 7 -16 0 -30 5 -30 10 0 6 -6 10 -14 10 -17 0 -180 159 -246 240 -25
30 -60 70 -77 89 -18 20 -33 39 -33 43 0 4 -11 18 -25 32 -14 14 -25 29 -25
33 0 5 -16 26 -35 48 -19 22 -35 43 -35 47 0 4 -6 13 -13 20 -16 17 -77 133
-77 147 0 6 -8 30 -19 54 -10 23 -24 62 -31 87 -7 25 -16 54 -20 65 -21 54
-50 165 -55 210 -14 125 -18 145 -26 145 -5 0 -9 9 -9 19 0 18 -17 39 -24 30
-5 -7 13 -255 22 -304 5 -27 17 -75 26 -105 10 -30 22 -71 27 -90 6 -19 15
-46 21 -60 12 -29 21 -50 39 -100 7 -19 21 -47 31 -62 10 -14 18 -31 18 -37 0
-6 5 -11 10 -11 6 0 10 -6 10 -13 0 -7 16 -30 35 -52 19 -22 35 -43 35 -47 0
-4 6 -13 13 -20 7 -7 24 -29 37 -48 14 -19 34 -45 47 -57 12 -13 34 -40 50
-60 15 -21 99 -110 185 -197 l158 -159 -128 -126 c-70 -69 -140 -144 -157
-166 -42 -56 -124 -135 -141 -135 -8 0 -14 -4 -14 -8 0 -4 -13 -16 -30 -25
-16 -10 -35 -23 -42 -30 -7 -7 -33 -28 -58 -47 -25 -19 -54 -43 -64 -52 -11
-10 -24 -18 -28 -18 -5 0 -20 -11 -34 -25 -14 -14 -29 -25 -34 -25 -5 0 -20
-10 -33 -22 -24 -24 -46 -38 -112 -72 -22 -12 -47 -28 -55 -36 -8 -8 -25 -21
-38 -27 -12 -7 -32 -19 -44 -25 -13 -7 -25 -15 -28 -18 -3 -3 -15 -11 -27 -17
-13 -7 -33 -19 -45 -25 -13 -7 -25 -15 -28 -18 -4 -4 -29 -18 -115 -64 -11 -6
-22 -13 -25 -16 -3 -3 -15 -11 -27 -17 -56 -32 -68 -39 -87 -56 -11 -9 -26
-17 -33 -17 -7 0 -13 -4 -13 -10 0 -5 -6 -10 -13 -10 -7 0 -22 -8 -33 -18 -10
-9 -31 -23 -46 -31 -16 -8 -28 -18 -28 -23 0 -4 -5 -8 -10 -8 -10 0 -159 -96
-170 -110 -3 -3 -21 -17 -40 -30 -19 -13 -51 -40 -70 -60 -19 -20 -51 -47 -70
-60 -19 -13 -37 -27 -40 -30 -3 -3 -21 -17 -40 -30 -19 -13 -41 -30 -48 -37
-8 -7 -30 -26 -50 -41 -21 -15 -46 -35 -56 -44 -11 -10 -26 -18 -33 -18 -7 0
-13 -4 -13 -9 0 -5 -13 -14 -30 -21 -16 -7 -30 -16 -30 -21 0 -4 -9 -11 -20
-14 -11 -4 -31 -16 -43 -28 -12 -13 -38 -33 -57 -47 -19 -14 -45 -34 -57 -47
-13 -12 -40 -34 -60 -50 -21 -15 -40 -30 -43 -33 -3 -3 -21 -17 -40 -30 -49
-34 -51 -36 -90 -69 l-35 -30 1383 -1 c1138 0 1382 2 1382 13 0 7 -16 32 -35
55 -23 26 -44 69 -60 119 -28 85 -37 194 -18 200 6 2 21 13 33 23 12 11 31 22
41 25 11 4 19 11 19 16 0 5 5 9 11 9 14 0 95 56 134 92 17 15 33 28 37 28 21
0 118 126 118 152 0 8 4 18 10 24 20 20 49 243 56 432 4 105 11 192 16 192 12
0 48 -37 78 -80 51 -74 131 -127 173 -116 23 6 83 -11 100 -28 7 -8 43 -17 78
-21 107 -11 370 -9 429 4 30 7 78 15 105 18 28 2 54 9 60 14 5 5 26 9 46 9 21
0 41 5 44 10 3 6 28 10 56 10 27 0 49 5 49 10 0 6 14 10 30 10 17 0 30 5 30
10 0 6 7 10 15 10 8 0 24 5 35 10 11 5 29 14 40 20 11 5 27 10 35 10 8 0 15 5
15 10 0 6 6 10 13 10 18 0 67 24 67 33 0 4 6 7 13 7 18 0 67 24 67 33 0 4 10
7 23 7 13 0 33 9 45 20 12 11 28 20 37 20 8 0 15 4 15 8 0 4 22 19 50 33 27
13 50 27 50 30 0 4 14 12 30 19 17 7 30 16 30 21 0 5 8 9 18 9 10 0 24 9 32
20 8 11 22 20 32 20 10 0 18 5 18 10 0 6 5 10 11 10 12 0 103 60 107 72 2 4
10 8 18 8 13 0 52 18 64 30 3 3 15 11 28 18 12 6 32 18 44 25 13 6 67 56 121
110 54 53 104 97 111 97 29 0 36 -62 36 -331 0 -148 -4 -269 -8 -269 -5 0 -13
-25 -19 -55 -9 -53 -9 -57 18 -85 l28 -29 -42 -35 c-23 -19 -58 -48 -77 -65
-19 -17 -40 -31 -47 -31 -6 0 -13 -4 -15 -8 -4 -10 -94 -72 -104 -72 -3 0 -14
-8 -23 -18 -9 -9 -45 -37 -81 -61 -36 -25 -67 -48 -70 -51 -3 -3 -26 -17 -52
-30 -27 -14 -48 -28 -48 -32 0 -5 -7 -8 -15 -8 -8 0 -23 -4 -33 -9 -9 -6 -29
-12 -44 -15 -15 -4 -33 -12 -40 -19 -12 -12 -38 -25 -153 -79 -27 -12 -51 -26
-53 -30 -2 -5 -12 -8 -23 -8 -10 0 -19 -4 -19 -10 0 -5 -6 -10 -12 -10 -7 0
-29 -14 -48 -30 -19 -16 -41 -30 -47 -30 -7 0 -13 -4 -13 -10 0 -5 -9 -10 -20
-10 -11 0 -20 -4 -20 -10 0 -5 -9 -10 -20 -10 -11 0 -20 -4 -20 -8 0 -5 -20
-19 -45 -32 -25 -13 -59 -36 -75 -52 -17 -15 -34 -28 -40 -28 -17 0 -53 -23
-80 -52 -15 -14 -46 -35 -71 -46 -163 -72 -225 -95 -364 -132 -82 -21 -97 -26
-150 -50 -22 -10 -71 -28 -110 -40 -86 -28 -115 -41 -115 -52 0 -4 1172 -8
2605 -8 l2605 0 0 359 0 359 -33 33 c-19 19 -38 41 -43 50 -5 8 -38 35 -74 59
-36 24 -71 49 -78 56 -6 7 -21 16 -32 19 -11 3 -20 11 -20 16 0 5 -7 9 -16 9
-19 0 -171 75 -190 95 -9 8 -20 15 -26 15 -6 0 -48 38 -94 85 -47 47 -89 85
-94 85 -6 0 -18 4 -28 9 -9 5 -38 15 -64 23 -27 7 -48 16 -48 20 0 4 -9 8 -20
8 -11 0 -20 5 -20 10 0 6 -9 10 -20 10 -11 0 -20 4 -20 8 0 4 -12 15 -27 24
-16 9 -39 27 -53 40 -14 13 -41 34 -60 48 -19 13 -42 31 -50 40 -8 9 -44 36
-80 60 -36 24 -72 51 -80 60 -8 9 -31 27 -50 40 -19 13 -37 27 -40 30 -3 3
-25 21 -50 40 -25 19 -68 58 -96 85 -28 28 -65 62 -83 77 -18 15 -61 53 -95
85 -33 33 -78 67 -98 76 -36 17 -111 71 -152 108 -11 11 -26 19 -33 19 -7 0
-13 5 -13 10 0 6 -6 10 -12 10 -7 0 -26 12 -43 26 -16 14 -46 38 -65 53 -19
14 -46 37 -60 51 -14 14 -41 37 -60 50 -19 13 -42 31 -50 40 -8 8 -31 27 -52
42 -20 15 -42 33 -50 40 -7 8 -33 29 -58 48 -25 19 -51 40 -58 47 -7 7 -26 20
-42 30 -17 9 -30 21 -30 25 0 4 -6 8 -12 8 -7 0 -26 11 -42 25 -16 13 -37 27
-47 30 -13 4 -19 16 -19 36 0 16 5 29 10 29 6 0 10 6 10 14 0 8 9 31 19 53 20
39 47 121 62 186 5 20 14 56 20 80 5 23 14 60 19 82 5 22 14 58 20 80 7 22 16
63 20 90 21 124 28 135 79 135 38 0 91 19 91 33 0 4 -25 7 -55 7 l-55 0 0 43
c0 40 16 127 40 212 32 112 51 305 30 305 -5 0 -10 -13 -10 -30z"/>
<path d="M7133 4045 c-13 -15 -18 -65 -7 -65 13 0 33 35 34 58 0 25 -9 28 -27
7z"/>
<path d="M7340 3932 c0 -5 -12 -15 -27 -23 -15 -8 -41 -26 -57 -41 -16 -16
-35 -28 -42 -28 -8 0 -14 -4 -14 -10 0 -5 -16 -10 -36 -10 -29 0 -35 -3 -30
-16 4 -9 -6 -28 -24 -47 -16 -18 -30 -36 -30 -40 0 -14 -171 -177 -186 -177
-8 0 -14 -4 -14 -10 0 -5 9 -10 20 -10 11 0 20 5 20 10 0 6 9 10 20 10 11 0
20 4 20 8 0 4 14 16 31 26 36 21 201 184 244 240 18 24 50 47 87 63 40 18 58
32 58 45 0 11 -7 18 -20 18 -11 0 -20 -4 -20 -8z"/>
<path d="M6900 3910 c0 -5 9 -10 20 -10 11 0 20 5 20 10 0 6 -9 10 -20 10 -11
0 -20 -4 -20 -10z"/>
<path d="M4962 3693 c2 -36 7 -49 21 -51 12 -2 17 3 17 17 0 12 -4 21 -10 21
-5 0 -10 14 -10 30 0 17 -5 30 -11 30 -6 0 -9 -19 -7 -47z"/>
<path d="M3896 3013 c-4 -5 -47 -11 -94 -15 -117 -9 -171 -18 -178 -29 -6 -11
-164 -12 -164 -1 0 11 -58 34 -70 27 -16 -10 28 -81 70 -112 19 -15 42 -34 50
-43 8 -9 23 -20 34 -23 12 -5 17 -14 13 -26 -8 -33 141 -231 174 -231 5 0 9
-6 9 -13 0 -7 9 -23 21 -35 11 -13 27 -37 34 -55 18 -39 49 -77 65 -77 6 0 27
-17 48 -39 20 -21 48 -44 62 -51 14 -7 31 -21 38 -32 7 -10 25 -18 41 -18 16
0 39 -9 52 -19 29 -23 88 -29 328 -37 165 -5 240 2 276 26 6 4 26 13 45 20 29
11 113 63 130 80 3 3 22 18 42 33 52 38 158 144 158 156 0 6 23 33 50 61 28
28 50 54 50 58 0 4 20 29 44 55 25 25 53 60 62 77 10 16 24 30 30 30 22 0 94
82 103 117 18 66 -11 80 -84 43 -22 -12 -59 -26 -82 -32 -32 -7 -43 -15 -43
-29 0 -22 -75 -99 -96 -99 -8 0 -14 -4 -14 -9 0 -5 -8 -11 -17 -15 -10 -3 -31
-14 -48 -23 -16 -10 -52 -32 -80 -48 -27 -16 -52 -32 -55 -36 -3 -3 -35 -20
-73 -38 l-67 -32 -263 4 c-281 5 -377 15 -452 47 -11 5 -49 19 -85 31 -36 12
-69 25 -75 29 -5 4 -26 11 -45 15 -37 8 -80 40 -80 61 0 7 -9 16 -20 19 -25 8
-26 22 -2 32 20 10 317 -1 482 -17 87 -8 134 -8 195 1 109 16 167 24 325 43
74 9 151 22 170 28 19 7 81 13 138 14 91 1 105 3 122 22 15 16 17 23 7 29 -6
4 -17 17 -23 28 -6 11 -33 28 -60 38 -43 16 -72 17 -239 12 -362 -10 -475 -17
-475 -26 0 -5 -31 -9 -70 -9 -40 0 -70 4 -70 10 0 6 -13 10 -29 10 -17 0 -33
5 -36 10 -7 12 -268 14 -279 3z m924 -581 c0 -5 -6 -17 -14 -28 -14 -17 -17
-18 -42 -4 -45 25 -42 40 10 40 25 0 46 -4 46 -8z"/>
<path d="M3720 2410 c0 -5 5 -10 10 -10 6 0 10 5 10 10 0 6 -4 10 -10 10 -5 0
-10 -4 -10 -10z"/>
<path d="M4575 2130 c-11 -5 -37 -9 -57 -9 -31 -1 -38 -5 -38 -21 0 -19 -7
-20 -120 -20 -73 0 -120 -4 -120 -10 0 -5 5 -10 11 -10 6 0 9 -6 6 -14 -9 -22
40 -49 77 -42 80 14 97 20 107 37 8 17 22 19 104 19 57 0 95 4 95 10 0 6 11
10 25 10 14 0 25 3 25 8 0 4 10 12 22 17 12 6 23 16 26 23 4 14 -130 16 -163
2z"/>
<path d="M4125 2120 c-8 -14 8 -27 44 -37 15 -4 26 -2 29 5 2 7 13 12 25 12
33 1 1 16 -49 25 -28 4 -44 3 -49 -5z"/>
<path d="M4136 654 c13 -55 127 -179 196 -215 36 -19 68 -25 68 -13 0 7 -76
81 -170 164 -40 36 -79 71 -87 79 -12 11 -13 9 -7 -15z"/>
</g>
</svg>
